<svg width="40" height="37" viewBox="0 0 40 37" fill="none" xmlns="http://www.w3.org/2000/svg">
<path fill-rule="evenodd" clip-rule="evenodd" d="M13.913 8.69565H8.69565V13.913H5.21739V8.69565H0V5.21739H5.21739V0H8.69565V5.21739H13.913V8.69565ZM31.0087 8.69565H36.5217C38.4348 8.69565 40 10.2609 40 12.1739V33.0435C40 34.9565 38.4348 36.5217 36.5217 36.5217H8.69565C6.78261 36.5217 5.21739 34.9565 5.21739 33.0435V17.3913H8.69565V33.0435H36.5217V12.1739H29.4783L26.2957 8.69565H17.3913V5.21739H27.8261L31.0087 8.69565ZM22.6087 31.3043C17.8087 31.3043 13.913 27.4087 13.913 22.6087C13.913 17.8087 17.8087 13.913 22.6087 13.913C27.4087 13.913 31.3043 17.8087 31.3043 22.6087C31.3043 27.4087 27.4087 31.3043 22.6087 31.3043ZM22.6087 17.3913C25.4783 17.3913 27.8261 19.7391 27.8261 22.6087C27.8261 25.4783 25.4783 27.8261 22.6087 27.8261C19.7391 27.8261 17.3913 25.4783 17.3913 22.6087C17.3913 19.7391 19.7391 17.3913 22.6087 17.3913Z" fill="black" fill-opacity="0.54"/>
</svg>
