<svg width="1380" height="715" viewBox="0 0 1380 715" fill="none" xmlns="http://www.w3.org/2000/svg">
<path d="M970.2 3.72003C970.2 6.12006 973.08 12.36 976.44 17.4L982.44 26.5201L976.2 40.6801C971.16 51.96 969.72 58.6801 969.72 75.0001C969.48 86.28 968.52 95.4 967.8 95.4C966.84 95.4 950.04 91.5601 930.36 87.0001L894.6 78.6L890.52 83.6401C888.12 86.52 886.2 90.1201 886.2 92.04C886.2 93.96 885 95.4 883.56 95.4C882.36 95.4 883.32 91.3201 886.2 86.04C896.04 68.52 891.24 64.92 858.12 64.4401C847.32 64.2001 837.72 63.0001 837 61.8C832.44 54.36 813.72 68.7601 810.36 82.4401C808.44 90.1201 809.88 91.5601 820.92 92.04C825.72 92.28 838.44 95.4 849 98.7601C863.16 103.08 873 104.76 886.44 104.52C904.2 104.52 904.68 104.28 903.48 98.7601C902.76 94.92 903.72 92.52 906.36 91.5601C908.52 90.6 910.92 90.36 911.4 91.08C913.56 93.0001 900.6 132.6 897 135.24C893.64 137.64 895.8 139.08 909.24 143.4C930.6 150.6 935.16 155.4 933.24 168.36C930.12 188.76 921.48 214.44 914.76 222.36C909 229.56 906.36 230.76 894.6 231.72C876.12 233.16 873.24 230.52 874.92 211.8C875.64 203.88 879.72 187.32 883.56 175.08C891.48 151.32 892.44 145.56 888.84 149.64C885.96 152.52 878.52 171.24 866.52 205.8C859.08 227.16 856.92 237.48 856.44 250.68C856.2 271.08 860.28 278.28 877.56 287.16C888.6 292.92 888.84 292.92 903.24 288.84C911.4 286.68 923.16 282.12 929.64 279L941.4 273L942.12 302.28C943.08 351.96 942.12 366.84 935.64 396.12C932.28 411.72 929.4 425.64 929.4 426.84C929.4 432.84 934.2 427.56 941.4 413.88C945.72 405.72 955.32 388.2 962.76 375C980.28 343.56 982.2 351 965.4 384.6C957.96 399 953.4 411 954.12 413.16C957 420.84 966.12 421.56 1003.56 417.72C1023.72 415.8 1040.76 414.84 1041.72 415.56C1043.88 417.96 1034.76 424.68 1012.68 436.68C984.6 452.04 981.72 454.68 984.84 460.92C996.84 484.2 1017.72 486.12 1073.16 468.6C1090.44 463.08 1095.96 462.6 1091.16 467.16C1088.28 470.04 1051.56 480.84 1034.04 483.96C993 491.4 946.68 481.32 935.88 462.84C931.56 455.4 924.6 452.76 924.6 458.52C924.6 460.44 927.96 464.76 931.8 468.12C935.88 471.96 939 477 939 480.36C939 483.48 930.84 514.44 921 549.24C902.04 615 893.4 650.04 893.4 660.84C893.4 671.64 900.36 691.56 906.6 698.28C909.96 701.88 911.64 705.24 910.68 705.72C905.4 709.08 736.92 710.52 364.2 710.76C134.52 711 -27.48 711.72 4.19999 712.44C170.28 716.76 912.6 713.16 917.88 707.88C919.32 706.44 917.64 703.8 913.08 700.44C905.88 695.4 902.76 689.4 898.2 671.88C894.6 657.48 898.68 636.84 922.2 555.24C932.76 518.28 941.4 485.4 941.4 481.8V475.56L961.32 482.28C989.4 491.64 1017.24 491.64 1054.44 482.04C1095 471.48 1094.76 471.48 1085.88 475.56C1081.56 477.72 1071.24 485.64 1063.08 493.32C1044.36 511.08 1041.96 512.52 1018.92 515.4C995.64 518.52 984.12 522.12 985.32 525.72C985.8 527.4 989.4 530.52 993.24 532.92C1019.64 549.72 1024.44 553.32 1027.56 558.84C1030.44 564.12 1030.68 566.28 1027.8 573C1026.12 577.32 1022.04 583.8 1018.92 587.64C1015.56 591.48 1013.64 595.56 1014.6 597C1015.56 598.44 1015.08 599.16 1013.88 598.92C1011.24 598.2 984.84 619.8 981 625.8C979.8 627.72 976.92 634.68 975 641.4C971.64 652.2 970.44 653.4 963.48 654.12C953.4 655.08 953.64 659.4 963.96 659.4H971.88L973.08 675.72C973.8 684.6 975.72 694.68 977.64 697.8C980.76 703.56 981 703.32 981.72 690.36C982.2 682.92 980.76 672.36 978.84 666.6C975.48 656.52 975.48 656.04 981 651.72C984.12 649.32 989.16 643.32 992.28 638.28L997.8 629.4L999.48 642.6C1002.6 669.24 1009.56 696.36 1014.12 700.92C1018.44 705.24 1020.84 705.48 1046.76 703.8C1062.12 702.6 1078.44 701.64 1083 701.64C1087.56 701.64 1156.2 702.36 1235.4 703.08L1379.4 704.52L1252.2 702.36C1182.36 701.16 1116.12 699.48 1105.32 698.76C1085.88 697.32 1085.64 697.32 1083 689.88C1081.56 685.56 1079.88 675.96 1078.92 668.52C1078.2 660.84 1076.76 654.6 1075.8 654.6C1074.84 654.6 1075.8 650.76 1078.2 646.2C1084.44 633.96 1095 538.44 1095 493.56V470.04L1102.2 465.72C1110.84 460.68 1110.84 459.48 1104.6 441C1097.64 420.36 1094.76 397.32 1098.84 394.2C1105.56 388.92 1121.88 319.8 1121.64 297C1121.64 283.56 1112.04 237.96 1105.56 221.4C1103.88 217.08 1104.36 217.08 1109.88 222.12C1117.32 229.08 1129.56 231.96 1149.48 232.2C1169.88 232.2 1174.92 234.6 1193.16 253.8C1207.32 268.44 1210.92 270.84 1225.8 275.4C1250.04 282.84 1274.52 284.28 1287.96 279.24C1302.84 273.48 1304.04 271.32 1322.04 217.8C1324.68 209.88 1325.4 201.96 1324.44 188.52C1321.8 154.44 1312.44 138.36 1288.68 126.12C1269.72 116.52 1246.2 114.6 1218.12 120.36C1207.56 122.52 1196.76 124.2 1194.36 124.2C1191.96 124.2 1181.64 119.16 1171.8 113.4C1155.72 103.56 1152.6 102.6 1138.68 102.6C1124.52 102.6 1122.84 103.08 1115.88 110.52C1111.56 114.84 1107 120.36 1105.56 123C1103.16 127.56 1102.68 127.56 1083 122.28C1052.76 114.12 1050.6 110.52 1066.2 93.0001C1079.64 77.8801 1084.2 65.16 1081.08 51.72C1077 34.6801 1071 20.04 1065.48 14.28C1057.08 5.16003 1039.32 1.56006 1007.16 2.28003C991.56 2.76007 976.68 2.04004 974.52 0.840027C971.16 -0.599976 970.2 -0.119934 970.2 3.72003ZM987 7.32007C988.92 7.56006 999.96 6.84003 1011.24 5.64008C1037.4 3.24005 1055.4 7.56006 1064.76 18.84C1068.12 22.92 1071 27.48 1071 29.4C1071 31.0801 1072.68 35.6401 1074.6 39.2401C1076.52 43.0801 1078.2 52.2001 1078.2 59.6401C1078.2 70.6801 1077 74.7601 1071.24 82.4401C1067.64 87.48 1062.12 93.96 1059.24 96.36C1056.6 99.0001 1054.2 103.56 1054.2 106.68C1054.2 113.16 1052.52 113.4 1039.8 108.36L1030.2 104.52L1036.44 96.36C1043.4 87.48 1041.72 86.28 1029.24 91.5601C1019.4 95.64 1016.76 99.2401 1020.6 103.8C1024.68 108.84 1019.88 108.6 993.72 102.36L972.12 97.3201L973.08 74.04C973.56 55.8 975 48.6 979.32 39.48C985.08 28.2001 985.08 28.2001 996.84 28.2001C1006.92 28.2001 1008.6 28.92 1008.6 33.0001C1008.6 38.04 1017.72 43.3201 1030.44 45.96C1037.64 47.4 1041.24 54.1201 1037.4 57.96C1032.12 63.2401 1035.24 64.6801 1040.76 59.6401C1046.76 54.1201 1051.8 54.6 1051.8 60.36C1051.8 62.28 1050.12 64.92 1048.2 66.6C1043.4 70.4401 1043.64 75.96 1048.68 81.48C1054.2 87.72 1060.44 86.7601 1065.96 79.08C1076.76 63.72 1076.52 40.92 1065.48 30.36C1054.2 19.5601 1040.04 15.0001 1016.76 15.0001C998.04 15.0001 993.96 15.72 989.4 19.8C984.12 24.36 984.12 24.36 979.8 18.6C977.16 15.2401 974.76 10.6801 974.04 8.28003C973.08 4.44006 973.8 3.96008 978.12 5.40002C981 6.36005 985.08 7.08008 987 7.32007ZM1049.16 23.6401C1056.12 26.5201 1063.56 31.8 1066.2 35.4C1074.36 46.6801 1071.24 71.8801 1060.68 80.52C1057.8 82.92 1055.64 83.16 1052.04 81.0001C1046.04 77.8801 1045.56 73.08 1050.84 69.0001C1052.76 67.08 1054.2 63.0001 1053.72 59.6401C1053.24 54.84 1051.8 53.4 1047.72 53.6401C1044.36 53.6401 1041.72 51.96 1040.76 49.3201C1040.04 46.92 1036.68 44.52 1033.08 43.5601C1020.12 40.92 1010.76 35.4 1011.48 31.0801C1011.96 27.72 1010.04 26.7601 1000.92 26.28C987.48 25.3201 986.04 22.2001 997.32 18.84C1008.84 15.0001 1035.24 17.6401 1049.16 23.6401ZM833.4 63.96C833.4 64.92 844.68 66.36 858.6 67.08C873.48 67.8 885.24 69.48 886.92 71.16C889.08 73.3201 888.36 76.4401 883.8 84.36C879 93.2401 878.52 95.64 881.16 98.7601C884.04 102.12 883.56 102.6 878.04 102.6C874.44 102.6 860.76 99.2401 847.32 95.4C834.12 91.3201 820.68 88.2001 817.56 88.2001C811.08 88.2001 810.84 87.48 814.44 80.28C819.96 69.48 833.4 57.96 833.4 63.96ZM910.44 85.08L918.6 86.7601L910.2 88.2001C903.24 89.16 901.56 90.36 901.08 96.1201C900.36 101.16 899.16 102.6 896.52 101.64C894.6 100.92 891.96 100.2 890.76 100.2C887.88 100.2 888.12 93.72 891 87.96C893.88 82.92 897.96 82.4401 910.44 85.08ZM936.36 94.4401C953.64 96.6 955.32 98.28 950.28 108.36C947.88 113.4 947.4 117.48 948.6 118.2C953.4 121.32 950.76 128.04 943.8 130.68C938.76 132.6 936.6 135 936.6 138.6C936.6 141.48 937.32 143.4 938.52 142.92C939.48 142.44 949.56 137.64 961.08 132.12L981.96 122.28L999 126.6C1008.6 129 1016.76 131.64 1017.24 132.12C1017.96 132.84 1015.32 134.28 1011.72 135.72C1005.24 137.88 977.16 161.64 962.52 177.24C951.24 189.24 928.92 208.68 927.96 207.48C927.24 207 928.92 198.36 931.8 188.76C940.44 157.08 938.52 151.08 916.44 143.16L901.32 137.64L904.2 130.44C905.88 126.36 908.52 117 910.2 109.8C913.56 94.92 916.68 89.8801 921.24 91.5601C923.16 92.28 929.88 93.48 936.36 94.4401ZM1030.92 98.04C1028.04 101.16 1024.68 102.36 1023 101.4C1020.84 99.96 1021.56 98.52 1025.64 96.36C1034.28 91.5601 1036.68 92.28 1030.92 98.04ZM971.88 104.04C972.36 105.48 969.48 106.2 964.92 105.72C957.24 104.76 957 104.76 962.76 108.12C967.32 110.76 967.56 111.72 964.68 112.92C962.76 113.64 958.92 113.64 956.28 112.92C951.96 111.96 951.96 111.24 954.84 105C957.72 99.2401 959.4 98.52 964.68 99.96C968.28 100.92 971.4 102.84 971.88 104.04ZM996.12 105.96C1014.36 109.8 1017.48 112.2 1004.76 112.2C993.24 112.2 977.4 107.88 977.4 105C977.4 102.12 977.64 102.12 996.12 105.96ZM1171.56 116.52C1188.84 127.8 1193.16 128.52 1219.8 122.76C1265.64 113.16 1303.8 127.56 1315.8 159.24C1321.8 175.56 1321.8 180.84 1315.8 201C1309.08 223.56 1303.8 229.8 1290.84 229.8C1283.64 229.8 1279.32 228.36 1276.2 225C1271.64 220.2 1271.64 219.72 1277.4 179.88C1281.24 153.96 1280.28 151.8 1263.72 149.16C1253.88 147.72 1253.4 147.72 1253.4 153.96C1253.4 157.32 1252.92 160.2 1252.44 160.2C1251.96 160.2 1243.08 158.52 1232.76 156.36C1220.04 153.72 1211.88 150.6 1207.8 147C1195.08 135 1166.52 129.48 1156.2 137.16C1152.36 139.8 1148.52 139.56 1130.04 135.72C1118.04 133.08 1107.96 130.68 1107.48 130.2C1105.32 128.28 1116.84 110.28 1121.88 107.88C1125 106.44 1133.88 105.48 1141.8 105.72C1154.04 106.44 1158.6 108.12 1171.56 116.52ZM1043.88 117.48C1072.2 124.44 1063.08 127.8 1033.8 121.08C1014.6 116.76 1012.2 114.84 1022.52 112.44C1022.76 112.2 1032.6 114.6 1043.88 117.48ZM974.28 116.04C973.56 116.76 971.4 117 969.72 116.28C967.8 115.56 968.52 114.84 971.16 114.84C973.8 114.6 975.24 115.32 974.28 116.04ZM1017 123.48C1052.52 132.84 1053.24 133.08 1051.32 135C1049.4 136.92 984.6 120.36 981.48 117.24C977.4 113.16 980.76 113.88 1017 123.48ZM974.76 120.84C975.48 121.56 942.6 138.6 940.2 138.6C936.84 138.6 942.36 133.32 947.64 131.4C950.76 130.2 953.4 127.56 953.4 125.64C953.4 120.6 960.84 117 967.8 118.68C971.16 119.4 974.28 120.36 974.76 120.84ZM1117.32 136.68C1143.96 141.96 1157.4 145.56 1157.4 147.48C1157.4 149.16 1155.96 150.6 1154.52 150.6C1149 150.36 1069.8 129.48 1073.4 129.24C1075.32 129 1095 132.36 1117.32 136.68ZM1042.68 137.88C1051.8 139.8 1054.2 146.04 1054.2 169.32L1053.96 187.8L1040.76 173.4C1027.56 159.24 1025.88 159.24 1036.44 173.4C1044.12 183.72 1045.56 192.12 1041.48 200.28C1037.16 208.68 999 237.24 968.52 255L946.2 267.96V261C946.2 252.6 945.96 252.6 923.4 257.4C914.04 259.32 903.96 261 900.84 261C895.56 261 895.8 260.28 905.16 250.2C910.44 244.44 915 237.96 915 236.28C915 234.36 917.16 231 919.8 228.6C922.44 226.2 924.6 222.84 924.6 220.92C924.6 217.32 982.68 159.96 1000.2 146.28C1011.96 137.16 1021.56 133.56 1029.96 135.24C1033.08 135.96 1038.84 137.16 1042.68 137.88ZM1107.96 146.76C1131.48 152.76 1151.16 157.8 1151.64 157.8C1152.12 157.8 1152.6 159 1152.6 160.44C1152.6 164.04 1147.56 162.84 1095.72 148.92C1072.92 142.92 1054.92 136.92 1055.64 135.72C1056.36 134.52 1058.76 134.04 1060.92 134.76C1063.32 135.48 1084.2 140.76 1107.96 146.76ZM1198.44 143.64C1208.04 150.36 1203.96 152.52 1192.2 146.76C1187.16 144.6 1179.48 142.68 1174.68 142.92C1162.44 143.4 1155.72 141.24 1160.04 138.12C1166.04 134.28 1190.04 137.64 1198.44 143.64ZM1066.2 153.48C1068.84 159.24 1071 165.96 1071 168.6C1071 171.24 1073.64 184.2 1077 197.4C1080.36 210.6 1083.72 229.56 1084.68 239.4L1086.12 257.4L1076.52 248.28C1071.48 243.48 1066.44 239.4 1065.48 239.4C1062.36 239.4 1063.8 249.24 1072.2 282.12C1077.48 303 1081.32 325.8 1082.76 344.28C1083.96 360.36 1086.36 375.96 1087.8 378.84C1089.48 381.48 1092.12 393.72 1094.04 405.96C1095.72 417.96 1099.32 434.28 1102.2 441.96C1108.2 459.48 1108.2 459.48 1101.96 462.84C1098.12 464.76 1096.44 464.76 1095 462.84C1093.8 460.68 1085.88 462.12 1067.16 467.4C1052.76 471.48 1032.6 475.56 1022.52 476.28L1004.04 477.72L995.4 469.08C990.84 464.52 987 459.24 987 457.56C987 455.64 997.8 448.2 1011.24 441C1024.44 433.8 1038.12 424.92 1041.48 421.32C1047 415.56 1047.24 414.6 1043.64 413.16C1041.24 412.2 1024.68 412.92 1006.68 414.6C966.84 418.2 959.64 417.72 958.68 410.76C958.2 408.12 963.48 394.68 970.2 381C982.68 355.32 984.6 347.4 978.84 347.4C974.76 347.4 969.96 355.08 949.32 393C940.92 408.12 934.2 419.64 934.2 418.68C934.2 417.72 936.84 403.32 940.44 386.52C945.96 359.16 946.2 353.16 944.76 322.2C942.36 272.04 941.64 274.2 970.92 256.92C1017.48 229.32 1047 204.6 1047 192.6C1047 188.76 1048.2 187.32 1051.32 187.56C1054.92 187.8 1055.4 185.16 1055.4 165.48C1055.4 140.28 1058.52 136.68 1066.2 153.48ZM1080.84 162.12C1085.88 172.44 1089.96 187.08 1093.08 205.56C1097.4 230.28 1097.64 239.88 1096.44 293.4C1093.8 385.56 1090.2 401.64 1085.4 341.16C1083.72 321.72 1079.88 300.12 1074.36 278.76C1069.8 260.76 1066.68 245.4 1067.4 244.68C1068.12 243.96 1071.96 247.32 1076.04 252.12C1080.12 257.16 1084.44 260.28 1085.88 259.56C1089.96 256.92 1086.6 222.12 1079.64 193.8C1069.8 153.72 1069.32 152.04 1067.4 147.48C1065.96 144.36 1066.44 143.64 1069.56 144.84C1071.72 145.56 1076.76 153.48 1080.84 162.12ZM1183.32 149.4C1187.64 150.36 1191 152.52 1191 154.44C1191 156.36 1192.2 157.8 1193.88 157.8C1195.32 157.8 1196.04 158.28 1195.32 159C1193.64 160.68 1159.8 152.52 1159.8 150.36C1159.8 148.2 1167 146.28 1171.8 147.24C1173.72 147.48 1179 148.44 1183.32 149.4ZM1095.48 152.76C1096.44 153.48 1096.44 161.64 1095.48 171C1093.56 187.32 1093.56 187.56 1091.64 178.2C1090.68 172.92 1087.08 163.8 1083.72 158.04L1077.72 147.72L1085.64 149.4C1090.2 150.36 1094.52 151.8 1095.48 152.76ZM1150.2 153C1152.84 154.92 1151.88 155.16 1146.6 153.96C1137.72 152.04 1135.8 150.6 1142.04 150.6C1144.44 150.6 1148.28 151.8 1150.2 153ZM1274.52 156.6C1276.92 158.76 1277.4 163.08 1276.2 173.16C1274.76 184.2 1273.8 186.6 1270.44 185.64C1268.28 184.92 1263.72 183.72 1260.12 182.76C1256.28 182.04 1253.4 180.36 1253.4 179.4C1253.4 178.2 1255.56 177.96 1258.2 178.68C1260.84 179.4 1263 178.92 1263 177.48C1263 176.28 1260.84 174.6 1258.2 173.88C1255.56 173.16 1253.4 170.76 1253.4 168.6C1253.4 165.48 1254.84 164.76 1259.4 165.48C1262.76 166.2 1265.4 165.72 1265.4 164.76C1265.4 163.56 1263.96 162.6 1262.04 162.6C1257.48 162.6 1255.08 158.52 1256.76 153.96C1258.2 149.88 1269.24 151.56 1274.52 156.6ZM1142.28 169.8C1144.2 183 1160.28 191.4 1183.56 191.4C1197.24 191.4 1208.04 187.08 1213.32 179.4C1216.68 174.36 1217.16 174.36 1233 178.44L1249.08 182.52L1247.88 192.12C1247.16 197.64 1247.64 203.88 1248.84 206.28C1251.96 212.28 1262.04 211.8 1266.36 205.32C1269.96 200.04 1270.2 200.52 1270.2 212.04C1270.2 225 1273.56 230.04 1284.12 233.4C1291.32 235.56 1305.24 230.52 1309.8 224.28C1313.4 219.24 1313.4 219.24 1313.4 225.96C1313.4 243 1285.32 256.2 1257.48 252.6C1233.96 249.24 1220.52 242.52 1203 225C1185 207 1175.16 203.16 1150.92 205.08C1132.92 206.76 1122.84 202.44 1113 189.72C1104.12 177.96 1098.36 162.84 1100.52 157.08C1101.72 153.96 1104.6 154.2 1121.64 158.76C1138.68 163.56 1141.56 165 1142.28 169.8ZM1180.2 160.2C1189.56 162.84 1193.16 164.52 1188.36 163.8C1179 162.36 1157.16 155.88 1161 155.64C1162.44 155.64 1171.08 157.56 1180.2 160.2ZM1176.12 164.04C1185 166.2 1193.16 169.08 1194.36 170.04C1198.2 173.4 1181.4 179.16 1174.2 177C1164.84 174.36 1155 167.4 1155 163.56C1155 159.24 1156.44 159.24 1176.12 164.04ZM1210.2 162.6C1214.52 165.48 1210.68 165.48 1204.2 162.6C1201.08 161.16 1200.6 160.44 1203 160.44C1204.92 160.44 1208.28 161.4 1210.2 162.6ZM1247.88 164.28C1251.72 165.72 1251.96 169.8 1248.12 169.8C1246.44 169.8 1238.52 167.64 1230.6 165L1216.2 160.2L1230.36 161.64C1238.28 162.36 1245.96 163.56 1247.88 164.28ZM1209 167.4C1212.12 168.84 1212.6 169.56 1210.2 169.56C1208.28 169.56 1204.92 168.6 1203 167.4C1198.68 164.52 1202.52 164.52 1209 167.4ZM1163.64 174.84C1178.76 182.76 1185.96 182.52 1194.6 174.6C1197.96 171.72 1201.56 170.52 1206.12 171.48C1213.8 172.92 1214.28 175.32 1208.04 181.56C1194.6 195 1145.4 187.56 1145.4 172.2C1145.4 165.72 1147.32 166.2 1163.64 174.84ZM1237.32 173.64C1242.12 174.6 1246.92 176.28 1247.64 177.48C1249.08 179.88 1241.16 178.2 1225.8 173.16C1220.52 171.24 1218.84 170.28 1222.2 171C1225.56 171.72 1232.28 172.92 1237.32 173.64ZM1113.96 194.52C1124.52 206.04 1131.24 208.2 1155 208.2C1180.68 208.2 1186.92 210.6 1199.4 226.2C1205.64 233.64 1214.04 239.88 1226.52 246.12C1243.56 254.28 1246.2 255 1266.36 255C1284.36 255 1290.12 254.04 1298.52 249.72C1306.68 245.16 1308.6 244.92 1308.6 248.04C1308.6 254.28 1299.24 270.36 1293.24 274.2C1284.36 280.2 1264.2 281.16 1243.8 276.84C1218.12 271.32 1202.76 263.16 1191.96 249C1180.44 233.88 1173.24 230.76 1145.88 228.84C1133.64 228.12 1120.44 225.96 1116.84 223.8C1107.96 219.24 1100.52 203.64 1098.6 185.4L1096.92 171L1102.2 179.4C1105.08 183.96 1110.36 190.92 1113.96 194.52ZM1263.72 186.84C1274.04 189.72 1274.76 192.6 1266.6 201.72C1257.72 211.8 1252.44 209.64 1251.48 195.48C1250.76 183 1250.76 183.24 1263.72 186.84ZM872.28 212.52C870.84 233.64 873 235.56 895.8 234.12C905.16 233.64 912.6 234.12 912.6 235.56C912.6 236.76 908.28 242.28 903 248.04C897.72 253.8 893.4 259.56 893.4 261C893.4 264.36 906.12 263.88 924.6 259.8C944.76 255.48 943.8 255.24 943.8 262.2C943.8 269.4 938.52 273 916.68 281.4C897.24 288.6 885.24 289.08 874.92 282.6C862.92 275.4 859.08 267.72 859.32 251.16C859.56 239.4 870.12 196.2 872.76 196.2C873.24 196.2 873 203.64 872.28 212.52ZM1319.88 214.68C1319.16 217.08 1318.68 215.64 1318.68 211.8C1318.68 207.72 1319.16 206.04 1319.88 207.48C1320.36 209.16 1320.36 212.52 1319.88 214.68ZM1113 259.8C1119.96 287.64 1120.44 303.96 1115.4 328.68C1109.4 357 1099.32 390.6 1096.68 390.6C1095.24 390.6 1094.76 383.64 1095.72 371.88C1100.76 303.48 1102.92 236.52 1100.28 227.88C1098.6 222.6 1097.4 215.88 1097.64 212.76C1097.64 205.32 1105.32 228.36 1113 259.8ZM921 224.76C920.28 226.2 918.36 227.4 916.92 227.4C915.48 227.4 915.48 225.96 917.4 223.8C920.76 219.72 923.64 220.68 921 224.76ZM1084.44 493.08C1078.68 505.32 1033.56 575.4 1031.16 575.4C1030.68 575.4 1030.92 572.28 1031.64 568.2C1033.8 557.64 1027.8 550.44 1005.96 537.72C995.4 531.72 987.72 525.72 988.68 524.76C990.12 523.32 1034.28 515.4 1041 515.4C1041.72 515.4 1050.6 507.96 1060.68 499.08C1078.92 483 1088.04 476.52 1089.72 478.2C1090.2 478.68 1087.8 485.4 1084.44 493.08ZM1090.2 534.6C1086.36 586.92 1078.92 642.36 1075.56 646.44C1073.88 648.6 1069.32 651.48 1065.24 653.4L1057.8 656.52L1066.92 656.76C1075.56 657 1075.8 657.24 1075.8 666.12C1075.8 671.4 1077.24 680.52 1079.16 687L1082.76 698.52L1057.08 696.84C1043.16 695.88 1029.72 693.96 1027.32 692.76C1024.68 691.32 1020.6 682.2 1017 669.48C1013.4 657.96 1008.6 643.32 1005.96 636.6L1001.16 624.84L1011.24 610.2C1047 559.08 1085.16 500.28 1088.04 492.36L1091.4 483L1092.12 490.2C1092.6 494.04 1091.88 514.2 1090.2 534.6ZM1002.12 619.08C995.64 628.68 988.44 639.48 986.04 643.08C983.88 646.92 980.52 649.8 978.6 649.8C975.72 649.8 975.72 648.36 978.6 639C981 630.6 985.56 624.6 997.08 614.04C1005.48 606.12 1012.68 600.36 1013.16 600.6C1013.4 601.08 1008.6 609.48 1002.12 619.08ZM1012.2 664.68C1019.64 691.32 1024.44 697.8 1036.2 697.8C1040.76 697.8 1045.08 699 1046.04 700.44C1047.24 702.36 1043.16 702.84 1031.88 702.12C1023 701.64 1015.32 700.44 1014.6 699.72C1012.92 698.04 1001.4 643.56 1001.4 637.8C1001.64 630.84 1005.48 640.44 1012.2 664.68ZM979.32 685.8C979.32 693.48 979.08 693.72 977.4 688.2C976.44 684.84 975.48 678.84 975.48 675C975.24 669 975.72 668.52 977.4 672.6C978.6 675.24 979.32 681.24 979.32 685.8Z" fill="#747474"/>
</svg>
