
<svg width="180" height="104" viewBox="0 0 180 104" xmlns="http://www.w3.org/2000/svg">
<path d="M7.11694 28.1307V50.063H14.0856H21.0543V43.0602V36.0573H24.9983C30.6326 36.0573 34.458 35.0739 37.3048 32.8986C37.8385 32.4814 38.3426 32.1834 38.402 32.2132C38.4909 32.3026 36.9489 36.6235 32.7677 48.0367L32.0263 50.063H39.2323H46.4382L47.4761 46.8447L48.514 43.6562H55.8978H63.2817L64.3196 46.8447L65.3575 50.063H77.8715C91.3937 50.063 93.6474 49.8843 97.2652 48.6029C100.586 47.4407 102.722 46.0699 105.301 43.4774C109.275 39.5141 111.203 34.4481 111.203 28.0413C111.203 23.6012 110.639 21.0682 108.979 17.6413C106.517 12.6946 102.692 9.38683 96.9687 7.39027L94.1515 6.40689L82.2306 6.31749L70.28 6.22809L70.2207 14.8699L70.1318 23.5416L67.0181 14.8997L63.9044 6.25789L55.9275 6.31749L47.9506 6.40689L45.4893 13.1118C43.1763 19.4888 43.028 19.757 42.8501 18.6247C41.9011 12.933 38.7578 9.08884 33.4201 7.12207C31.6408 6.46649 31.2257 6.43669 19.3641 6.31749L7.11694 6.22809V28.1307ZM28.0823 18.2671C28.8237 19.012 28.9127 19.2802 28.9127 21.1278C28.9127 22.9158 28.8237 23.3032 28.201 23.9587C27.2817 24.9421 25.8879 25.3295 23.2191 25.3295H21.0543V21.2768V17.2241L24.168 17.3433C27.1038 17.4327 27.3113 17.4923 28.0823 18.2671ZM92.224 19.1014C96.2273 20.9788 98.1548 25.1507 97.2652 30.0974C96.8204 32.6006 96.1087 33.9416 94.4481 35.4017C92.6392 36.9811 90.9193 37.5473 87.2718 37.7559L84.2174 37.9347V28.0115V18.1181L87.4201 18.2373C90.0296 18.3267 90.8896 18.4757 92.224 19.1014ZM57.9736 27.2367L59.8418 33.0774H55.8385C52.7545 33.0774 51.8649 32.988 51.9538 32.69C52.0428 32.5112 52.9324 29.7994 53.9703 26.7301C54.9786 23.631 55.8682 21.1874 55.9571 21.247C56.0164 21.3364 56.9357 24.0183 57.9736 27.2367Z" fill="#8B8B8B"/>
<path d="M104.679 50.2642C102.04 50.7112 99.5189 51.6648 97.5914 52.9164L95.7825 54.1083V52.4694V50.8304H88.9621H82.1713L82.0824 64.4487C81.9934 77.1731 81.9637 78.1863 81.43 79.2293C80.3624 81.4344 77.4267 82.537 74.6985 81.8218C73.1268 81.4046 72.1482 80.5702 71.4365 78.9909C70.9324 77.8883 70.8731 76.7857 70.8731 64.2997V50.8304H56.9654H43.0576L42.7611 51.635C42.5832 52.1118 40.5667 57.7737 38.2833 64.2401C35.9703 70.7066 34.0132 76.1897 33.9538 76.4281C33.8649 76.6665 33.7166 76.7559 33.6277 76.6665C33.5387 76.5771 31.3739 70.7662 28.794 63.7336L24.1384 50.9794L15.6277 50.89L7.11694 50.8304V72.733V94.6356H14.0856H21.0543L21.1136 84.027L21.2026 73.3886L24.4349 84.027L27.6968 94.6356H33.5387H39.4102L40.3591 91.5662C44.2438 78.9015 45.9637 73.3588 46.112 73.2396C46.201 73.1502 46.2603 77.9181 46.2603 83.8482V94.6356H53.0807H59.9011V90.8212V87.0367L60.7018 88.0797C63.0741 91.2086 66.8995 93.5628 71.051 94.5164C74.224 95.2018 80.3031 94.9634 83.0313 94.0396C87.0642 92.6688 90.4151 90.3146 92.3723 87.4837L93.2323 86.2321L93.7957 87.3645C95.3674 90.4636 100.082 93.5032 104.738 94.4568C111.143 95.7679 118.557 94.5164 122.145 91.5066L123.064 90.702V92.6688V94.6356H130.033H137.002V90.4338V86.2321L138.217 87.7817C140.441 90.6126 144.385 93.0562 148.596 94.2184C151.591 95.0528 158.382 94.9932 161.466 94.0992C168.257 92.1324 173.417 87.0367 175.374 80.3616C176.234 77.4115 176.827 77.6499 168.791 77.6499H161.763L160.725 79.0505C159.301 81.0172 157.107 82.1198 154.675 82.1198C149.931 82.09 147.232 78.6333 147.232 72.584C147.232 67.9949 148.745 64.9553 151.68 63.6144C154.675 62.2436 158.679 63.3462 160.725 66.1175L161.763 67.5181H168.791C176.827 67.5181 176.234 67.7565 175.374 64.8063C173.862 59.651 170.036 54.9427 165.469 52.678C156.158 48.0889 143.911 50.2344 138.188 57.4757L137.002 58.9656V54.8831V50.8304H130.033H123.064V52.9462V55.0619L121.878 54.0189C118.913 51.486 115.176 50.2642 109.868 50.0854C107.911 50.0258 105.568 50.0854 104.679 50.2642ZM110.55 61.4092C111.084 61.8562 111.499 62.5714 111.618 63.1972L111.825 64.2401H117.43H123.064V68.2631C123.064 70.4682 123.005 72.286 122.946 72.286C122.886 72.286 122.175 71.839 121.374 71.3026C120.544 70.7364 118.171 69.604 116.066 68.7399C110.343 66.3857 107.644 65.0745 107.17 64.4189C106.577 63.525 106.636 61.9754 107.348 61.2602C108.148 60.4556 109.483 60.5152 110.55 61.4092ZM99.4893 74.9083C100.468 75.3851 102.811 76.3685 104.679 77.0539C110.995 79.4379 112.389 80.3616 112.389 82.3284C112.389 83.58 111.499 84.2058 109.69 84.2058C108.504 84.2058 108.178 84.0568 107.555 83.3118C107.14 82.835 106.725 82.0304 106.606 81.5238L106.399 80.6298H100.913H95.397L95.6046 79.0505C95.6936 78.2161 95.7825 76.3983 95.7825 75.0275V72.5542L96.7611 73.2694C97.2652 73.6866 98.5107 74.4017 99.4893 74.9083Z" fill="#8B8B8B"/>
</svg>

