<svg width="46" height="46" viewBox="0 0 46 46" fill="none" xmlns="http://www.w3.org/2000/svg">
<g id="power_settings_new_24px">
<path id="icon/action/power_settings_new_24px" fill-rule="evenodd" clip-rule="evenodd" d="M21.0833 5.75H24.9167V24.9167H21.0833V5.75ZM31.4525 12.6309L34.1742 9.90921C37.8925 13.0717 40.25 17.7484 40.25 23C40.25 32.5259 32.5258 40.25 23 40.25C13.4742 40.25 5.75 32.5259 5.75 23C5.75 17.7484 8.1075 13.0717 11.8258 9.90921L14.5283 12.6117C11.5192 15.065 9.58333 18.8025 9.58333 23C9.58333 30.4175 15.5825 36.4167 23 36.4167C30.4175 36.4167 36.4167 30.4175 36.4167 23C36.4167 18.8025 34.4808 15.065 31.4525 12.6309Z" fill="#8B8B8B"/>
</g>
</svg>
